<?xml version="1.0" encoding="UTF-8"?>
<svg width="28px" height="28px" viewBox="0 0 28 28" version="1.1" xmlns="http://www.w3.org/2000/svg" xmlns:xlink="http://www.w3.org/1999/xlink">
    <title>Desktop printer blue</title>
    <g id="Symbols" stroke="none" stroke-width="1" fill="none" fill-rule="evenodd">
        <g id="Desktop/printer/blue-Copy" transform="translate(-1.000000, -1.000000)" fill="#2A2B33">
            <g id="Desktop-printer-blue" transform="translate(1.000000, 1.000000)">
                <path d="M22.0018777,14.4697584 C22.5228892,14.4697584 22.9460199,14.0164041 22.9460199,13.4581774 C22.9460199,12.8999508 22.5228892,12.4465965 22.0018777,12.4465965 C21.4808662,12.4465965 21.0577355,12.8999508 21.0577355,13.4581774 C21.0577355,14.0164041 21.4808662,14.4697584 22.0018777,14.4697584 L22.0018777,14.4697584 Z M5.95248006,18.516082 L5.95248006,25.5993333 C5.95248006,26.1564675 6.38274788,26.607637 6.89662225,26.607637 L21.0577355,26.607637 C21.578747,26.607637 22.0018777,26.149913 22.0018777,25.5993333 L22.0018777,18.516082 L5.95248006,18.516082 Z M6.89662225,1.32029881 C6.37561074,1.32029881 5.95248006,1.77802279 5.95248006,2.32860247 L5.95248006,9.41294617 L22.0018777,9.41294617 L22.0018777,2.32860247 C22.0018777,1.77146827 21.5726295,1.32029881 21.0577355,1.32029881 L6.89662225,1.32029881 Z M5.00833786,23.5728942 L5.00833786,17.5045011 L22.9460199,17.5045011 L22.9460199,23.5728942 L24.8271672,23.5728942 C25.8742881,23.5728942 26.7215691,22.6694629 26.7215691,21.5475475 L26.7215691,12.4498738 C26.7215691,11.3312357 25.8742881,10.4234347 24.8271672,10.4234347 L3.12821022,10.4234347 C2.08108923,10.4234347 1.23278869,11.3279584 1.23278869,12.4498738 L1.23278869,21.5475475 C1.23278869,22.6661856 2.08108923,23.5728942 3.12821022,23.5728942 L5.00935746,23.5728942 L5.00833786,23.5728942 Z M22.9460199,24.5844751 L22.9460199,25.5960561 C22.9460199,26.7212487 22.1017977,27.6192179 21.0607943,27.6192179 L6.89458306,27.6192179 C5.84950126,27.6192179 5.00935746,26.7136017 5.00935746,25.5960561 L5.00935746,24.5844751 L3.11597511,24.5844751 C1.55396017,24.5844751 0.289666087,23.2265971 0.289666087,21.5508248 L0.289666087,12.4465965 C0.289666087,10.7730091 1.55497976,9.41403859 3.11597511,9.41403859 L5.00935746,9.41403859 L5.00935746,2.33297215 C5.00935746,1.20777955 5.85357963,0.309810312 6.89458306,0.309810312 L21.0607943,0.309810312 C22.1058761,0.309810312 22.9460199,1.21542649 22.9460199,2.33297215 L22.9460199,9.41403859 L24.8394023,9.41403859 C26.4014172,9.41403859 27.6667309,10.7719167 27.6667309,12.4465965 L27.6667309,21.5508248 C27.6667309,23.2255047 26.4003976,24.5844751 24.8394023,24.5844751 L22.9460199,24.5844751 Z" id="Fill-1"></path>
                <path d="M6.24204418,9.10258965 L21.7123136,9.10258965 L21.7123136,2.32849323 C21.7123136,1.94286897 21.4186711,1.63043685 21.0577355,1.63043685 L6.89662225,1.63043685 C6.53568668,1.63043685 6.24204418,1.94286897 6.24204418,2.32849323 L6.24204418,9.10258965 Z M22.2914419,9.72199179 L5.66393552,9.72199179 L5.66393552,2.32849323 C5.66393552,1.60203393 6.21655438,1.00994229 6.89662225,1.00994229 L21.0577355,1.00994229 C21.7378034,1.00994229 22.2914419,1.60203393 22.2914419,2.32849323 L22.2914419,9.72199179 Z M22.0018777,12.7567345 C21.6409422,12.7567345 21.3472997,13.0713515 21.3472997,13.4580682 C21.3472997,13.8447849 21.6409422,14.1594018 22.0018777,14.1594018 C22.3628133,14.1594018 22.6564558,13.8447849 22.6564558,13.4580682 C22.6564558,13.0713515 22.3628133,12.7567345 22.0018777,12.7567345 L22.0018777,12.7567345 Z M22.0018777,14.7798964 C21.3218099,14.7798964 20.769191,14.1867123 20.769191,13.4580682 C20.769191,12.729424 21.3218099,12.1373324 22.0018777,12.1373324 C22.6819456,12.1373324 23.235584,12.729424 23.235584,13.4580682 C23.235584,14.1867123 22.6819456,14.7798964 22.0018777,14.7798964 L22.0018777,14.7798964 Z M23.235584,23.2636301 L24.8281868,23.2636301 C25.7131926,23.2636301 26.4330246,22.493474 26.4330246,21.5474383 L26.4330246,12.4497645 C26.4330246,11.5037288 25.7131926,10.7335727 24.8281868,10.7335727 L3.12821022,10.7335727 C2.24218477,10.7335727 1.52235282,11.5037288 1.52235282,12.4497645 L1.52235282,21.5474383 C1.52235282,22.493474 2.24218477,23.2636301 3.12821022,23.2636301 L4.71979333,23.2636301 L4.71979333,17.1941446 L23.235584,17.1941446 L23.235584,23.2636301 Z M24.8281868,23.8830322 L22.6564558,23.8830322 L22.6564558,17.8146392 L5.29790199,17.8146392 L5.29790199,23.8830322 L3.12821022,23.8830322 C1.92407206,23.8830322 0.944244151,22.8354015 0.944244151,21.5474383 L0.944244151,12.4497645 C0.944244151,11.1618014 1.92407206,10.1141706 3.12821022,10.1141706 L24.8281868,10.1141706 C26.0313053,10.1141706 27.0111332,11.1618014 27.0111332,12.4497645 L27.0111332,21.5474383 C27.0111332,22.8354015 26.0313053,23.8830322 24.8281868,23.8830322 L24.8281868,23.8830322 Z M6.24204418,18.8251277 L6.24204418,25.5992241 C6.24204418,25.9848483 6.53568668,26.2983729 6.89662225,26.2983729 L21.0577355,26.2983729 C21.4186711,26.2983729 21.7123136,25.9848483 21.7123136,25.5992241 L21.7123136,18.8251277 L6.24204418,18.8251277 Z M21.0577355,26.917775 L6.89662225,26.917775 C6.21655438,26.917775 5.66393552,26.3267758 5.66393552,25.5992241 L5.66393552,18.2057255 L22.2914419,18.2057255 L22.2914419,25.5992241 C22.2914419,26.3267758 21.7378034,26.917775 21.0577355,26.917775 L21.0577355,26.917775 Z M3.11597511,9.72308421 C1.71709489,9.72308421 0.578210623,10.9455022 0.578210623,12.4475797 L0.578210623,21.551808 C0.578210623,23.0538855 1.71709489,24.275211 3.11597511,24.275211 L5.29892158,24.275211 L5.29892158,25.5959468 C5.29892158,26.5408901 6.01467517,27.3099538 6.89458306,27.3099538 L21.0607943,27.3099538 C21.9407022,27.3099538 22.6564558,26.5408901 22.6564558,25.5959468 L22.6564558,24.275211 L24.8394023,24.275211 C26.2393021,24.275211 27.3771668,23.0538855 27.3771668,21.551808 L27.3771668,12.4475797 C27.3771668,10.9455022 26.2393021,9.72308421 24.8394023,9.72308421 L22.6564558,9.72308421 L22.6564558,2.33286291 C22.6564558,1.38791961 21.9407022,0.61994835 21.0607943,0.61994835 L6.89458306,0.61994835 C6.01467517,0.61994835 5.29892158,1.38791961 5.29892158,2.33286291 L5.29892158,9.72308421 L3.11597511,9.72308421 Z M21.0607943,27.9293559 L6.89458306,27.9293559 C5.69554287,27.9293559 4.71979333,26.8828176 4.71979333,25.5959468 L4.71979333,24.8946132 L3.11597511,24.8946132 C1.39796259,24.8946132 0.0001019592,23.3947205 0.0001019592,21.551808 L0.0001019592,12.4475797 C0.0001019592,10.6035747 1.39796259,9.10368207 3.11597511,9.10368207 L4.71979333,9.10368207 L4.71979333,2.33286291 C4.71979333,1.04599215 5.69554287,-0.00054621 6.89458306,-0.00054621 L21.0607943,-0.00054621 C22.2588149,-0.00054621 23.235584,1.04599215 23.235584,2.33286291 L23.235584,9.10368207 L24.8394023,9.10368207 C26.5574148,9.10368207 27.9552754,10.6035747 27.9552754,12.4475797 L27.9552754,21.551808 C27.9552754,23.3947205 26.5574148,24.8946132 24.8394023,24.8946132 L23.235584,24.8946132 L23.235584,25.5959468 C23.235584,26.8828176 22.2588149,27.9293559 21.0607943,27.9293559 L21.0607943,27.9293559 Z" id="Fill-3"></path>
            </g>
        </g>
    </g>
</svg>