<?xml version="1.0" encoding="UTF-8"?>
<svg width="32px" height="32px" viewBox="0 0 32 32" version="1.1" xmlns="http://www.w3.org/2000/svg" xmlns:xlink="http://www.w3.org/1999/xlink">
    <title>Desktop instagram footer blue</title>
    <g id="Symbols" stroke="none" stroke-width="1" fill="none" fill-rule="evenodd">
        <g id="Desktop/instagram/footer/blue-Copy" fill="#2A2B33">
            <g id="Desktop-instagram-footer-blue">
                <path d="M15.9717971,29.0287956 L15.9717971,29.0309178 C18.2540315,29.0309178 20.5373304,29.0945835 22.8163715,29.0160625 C26.6708355,28.8844868 28.928587,26.7113647 29.0148094,22.8861181 C29.119128,18.2915777 29.119128,13.6917319 29.0148094,9.09719159 C28.928587,5.30377781 26.6793513,3.06805114 22.8791755,2.98740794 C18.2944816,2.88872612 13.7044653,2.88978722 9.11977147,2.98740794 C5.3738839,3.06699004 3.1118745,5.24117322 3.00649147,8.96243256 C2.87449657,13.6514103 2.8734321,18.3499379 3.00755595,23.0378546 C3.11400345,26.7580528 5.38027075,28.8770591 9.12828727,29.0128792 C11.4062638,29.0956446 13.6906272,29.0287956 15.9717971,29.0287956 M7.90626995,31.7770311 C3.19490355,31.1732682 0.300595993,28.0642605 0.132408941,23.3402666 C-0.0411004864,18.4602918 -0.0464228615,13.5665227 0.130279991,8.68760901 C0.314434168,3.61769823 3.72394763,0.27312753 8.79936449,0.11502441 C13.5745994,-0.0345899519 18.3615435,-0.0409565205 23.1367784,0.111841126 C28.3633507,0.277371909 31.7419944,3.68242501 31.8963433,8.90407234 C32.0357895,13.6418605 32.0336606,18.3902595 31.8952788,23.1269866 C31.7441234,28.2955792 28.3431257,31.6507608 23.1719061,31.8926904 C20.7747084,32.0051665 18.3679304,31.9117901 15.9664747,31.9117901 C15.9643458,31.9871278 10.5631996,32.1165814 7.90626995,31.7770311" id="Fill-1"></path>
                <path d="M16.0167841,21.0000055 C18.776809,20.9880376 21.0275968,18.7151312 20.9997479,15.967378 C20.9709044,13.1987634 18.7032083,10.9675799 15.9501457,11.0003622 C13.2139914,11.0321511 11.0009985,13.2673082 11.0000035,16.0001603 C10.9990093,18.7578475 13.2607377,21.0118793 16.0167841,21.0000055 M15.993295,24.0000055 C11.5880089,23.9958846 7.9958794,20.3973277 8.00000355,15.9928012 C8.0041348,11.5872452 11.6034878,7.99486436 16.007742,8.00000551 C20.4130281,8.00515771 24.0051576,11.6037146 24.0000035,16.0082412 C23.9958703,20.4117384 20.3965173,24.0041193 15.993295,24.0000055" id="Fill-4"></path>
                <path d="M25.999932,7.00608936 C25.9921414,8.12647318 25.1051247,9.00550949 23.9866155,9 C22.8658804,8.99554561 21.9966708,8.11429509 22,6.98394739 C22.0033484,5.85249258 22.8714451,4.99449114 24.0088744,5 C25.1418518,5.00666922 26.0088356,5.88017005 25.999932,7.00608936" id="Fill-6"></path>
            </g>
        </g>
    </g>
</svg>