<?xml version="1.0" encoding="UTF-8"?>
<svg width="32px" height="32px" viewBox="0 0 32 32" version="1.1" xmlns="http://www.w3.org/2000/svg" xmlns:xlink="http://www.w3.org/1999/xlink">
    <title>whatsapp icon</title>
    <g id="Symbols" stroke="none" stroke-width="1" fill="none" fill-rule="evenodd">
        <g id="Desktop/whatsapp/footer/blue-Copy" fill="#2A2B33">
            <path d="M24.2235521,19.1780195 C24.1269709,19.0189936 23.8705313,18.923245 23.4850393,18.7317479 C23.0995473,18.5410834 21.2062237,17.6169017 20.8540355,17.4895145 C20.5010147,17.3621273 20.2445751,17.2980174 19.9873029,17.680179 C19.7308633,18.0631732 18.9931831,18.923245 18.7675496,19.1780195 C18.5435812,19.4336265 18.3187802,19.4660977 17.9332882,19.2746006 C17.5486288,19.0839361 16.3080606,18.6792944 14.8376958,17.3779466 C13.6928761,16.3655097 12.9202269,15.1157829 12.6945933,14.7327887 C12.470625,14.350627 12.6712806,14.1441432 12.8636103,13.9534787 C13.0367903,13.7819639 13.2491024,13.5072072 13.4422647,13.2840714 C13.6345944,13.0609356 13.6987043,12.9019098 13.8269241,12.6471353 C13.9559765,12.3923609 13.891034,12.1692252 13.7944528,11.9777281 C13.6978717,11.7862309 12.9277202,9.90622886 12.6071707,9.14107301 C12.2857886,8.37674975 11.9652391,8.50413696 11.7412707,8.50413696 C11.5164698,8.50413696 11.2591976,8.47166571 11.002758,8.47166571 C10.7463184,8.47166571 10.3291877,8.56741427 9.97533434,8.9495759 C9.62314617,9.33257012 8.62819379,10.2567518 8.62819379,12.1367539 C8.62819379,14.016756 10.0078056,15.8334808 10.2001353,16.0882552 C10.3932976,16.342197 12.8636103,20.3261695 16.7784774,21.8564812 C20.6933444,23.3851278 20.6933444,22.8747463 21.399386,22.811469 C22.1045949,22.7473591 23.677369,21.8872873 23.9987511,20.9955768 C24.3193006,20.1022012 24.3193006,19.3370453 24.2235521,19.1780195 M16.2914086,2.48280169 C9.00785763,2.48280169 3.0831035,8.36176302 3.0831035,15.5878649 C3.0831035,18.455326 4.01727637,21.1113077 5.59920903,23.2718947 L3.94900349,28.1392517 L9.02450955,26.5256804 C11.1101629,27.895301 13.6079513,28.6937607 16.2914086,28.6937607 C23.5732945,28.6937607 29.4988812,22.8147994 29.4988812,15.5886975 C29.4988812,8.36259562 23.5741271,2.48280169 16.2914086,2.48280169 M32,15.5878649 C32,24.196909 24.967893,31.1765624 16.2914086,31.1765624 C13.536348,31.1765624 10.9486392,30.4721861 8.69729927,29.2366134 L0,32 L2.83582245,23.6365718 C1.40542228,21.2878181 0.581152105,18.5335901 0.581152105,15.5878649 C0.581152105,6.97882084 7.61492429,0 16.2914086,0 C24.9687256,0 32,6.97882084 32,15.5878649" id="whatsapp-icon"></path>
        </g>
    </g>
</svg>