<svg xmlns="http://www.w3.org/2000/svg" xmlns:xlink="http://www.w3.org/1999/xlink" width="11" height="20" viewBox="0 0 11 20">
    <defs>
        <path id="prefix__a" d="M0 0L10.33 0 10.33 20 0 20z"/>
    </defs>
    <g fill="none" fill-rule="evenodd">
        <mask id="prefix__b" fill="#fff">
            <use xlink:href="#prefix__a"/>
        </mask>
        <path fill="#B4C5D6" d="M1.764 5.786L1.67 5.64c-.347.079-.637.226-.761.579l.109.138.746-.571zm1.199.419l-.912.564.025.079 1.146-.33-.26-.313zm1.462 1.95l.152.093c.259-.194.682-.294.532-.721l-.171-.104-.513.732zm.854 1.268l-.148-.118c-.242.243-.681.337-.6 1l.748-.882zm-2.597 8.48c-.564.354-.575.398-.202.798.135-.244.629-.355.202-.798zm4.657.851c-.711-.108-.92.326-1.21.634l.104.152 1.106-.786zM.567 6.004l.819-.681c-.635-.175-.894.041-.82.681zm4.605.606l-.28-.157c-.154.258-.311.516-.467.773l.25.154c.165-.257.33-.514.497-.77zm.094 7.623l-.141-.111-.735.824.155.133c.254-.27.783-.294.72-.846zm-3.1 3.518l.18.096.434-.888c-.053-.027-.106-.052-.16-.078-.296.215-.648.399-.453.87zM1.29 6.471c.606.543.747-.147 1.125-.351-.553-.318-.728.352-1.125.351zm3.03 6.601l.148.15c.286-.293.916-.306.74-1.12l-.887.97zm-.001-.947l.137.14c.7-.313.84-.508.68-1.093l-.817.953zm.882-2.058c-.401.289-.761.565-.692 1.183.38-.335.974-.462.692-1.183zm-.8 4.28c.426-.373.925-.551.83-1.229-.48.297-.894.535-.83 1.229zm.776-6.131c-.384.275-.823.465-.635 1.09.399-.28.907-.419.635-1.09zm-.24 11.058l.098.169c.53.011.904-.241 1.176-.663l-.102-.176-1.171.67zm2.087.154c.766.305.853-.417 1.384-.638-.78-.207-.973.333-1.384.638zm2.257-.776l-1.372.865c.778.165 1.135-.039 1.372-.865zm-4.193.039l-.063-.145-1.37.614c.748.263.748.263 1.433-.469zm-1.134-.115c-.661-.212-1.043.021-1.314.539.636.317.913-.169 1.314-.539zm.91-13.84L3.54 6.16c.99-.317 1.434-.785 1.323-1.424zM3.27 17.241l.159.002c-.083.107-.218.209-.233.326-.016.122.06.358.135.373.498.111 1.004.19 1.512.251.364.044.734.055 1.102.062.998.017 1.998.063 2.993.022.577-.023 1.013-.648 1.05-1.322.032-.562-.317-1.007-.913-1.168-.33-.089-.66-.182-.927-.255.03-.463.087-.842.075-1.219-.09-2.964-.194-5.925-.291-8.888-.044-1.331-.093-2.661-.117-3.992-.01-.541-.22-.892-.773-.927-.537-.035-1.1-.102-1.612.016-.452.105-.922.371-1.258.697-.855.829-1.66 1.712-2.438 2.615-.2.23-.375.663-.294.919.222.709 1.43.984 1.983.478.397-.364.705-.824 1.083-1.212.153-.157.387-.236.584-.35.075.201.202.399.216.604.083 1.211.157 2.423.2 3.636.089 2.488.157 4.979.234 7.467.009.309-.113.406-.446.406-.556 0-1.12.052-1.661.167-.2.042-.443.303-.491.505-.056.238.077.522.128.787zm.67-10.705c-.46.223-.846.418-1.24.599C1.69 7.598-.002 6.579 0 5.474c0-.3.163-.664.37-.89.919-1.007 1.88-1.975 2.828-2.956.134-.139.29-.262.4-.416C4.657-.268 6.156-.089 7.64.188c.22.041.456.504.51.804.095.512.047 1.048.068 1.574.108 2.699.232 5.397.325 8.096.048 1.367.049 2.737.05 4.105 0 .351.073.548.466.608.286.043.616.145.812.338.226.221.5.603.453.86-.161.869-.401 1.734-.715 2.561-.237.622-.778.917-1.481.859-1.342-.11-2.685-.205-4.027-.31-.537-.042-1.08-.064-1.607-.158-.181-.032-.452-.237-.471-.389-.096-.792-.217-1.6-.15-2.387.066-.787.525-1.073 1.333-1.095.609-.016.76-.146.769-.774.04-2.56.068-5.119.09-7.679.003-.196-.071-.394-.124-.665z" mask="url(#prefix__b)"/>
    </g>
</svg>
