<svg xmlns="http://www.w3.org/2000/svg" xmlns:xlink="http://www.w3.org/1999/xlink" width="22" height="23" viewBox="0 0 22 23">
    <defs>
        <path id="prefix__a" d="M0 0.58L21.334 0.58 21.334 21.312 0 21.312z"/>
    </defs>
    <g fill="none" fill-rule="evenodd">
        <g transform="translate(0 .108)">
            <mask id="prefix__b" fill="#fff">
                <use xlink:href="#prefix__a"/>
            </mask>
            <path fill="#2A2B33" d="M10.648 19.387v.002c1.521 0 3.044.041 4.563-.01 2.57-.085 4.075-1.493 4.133-3.972.07-2.976.07-5.957 0-8.934-.058-2.457-1.557-3.906-4.091-3.958-3.057-.064-6.117-.064-9.173 0-2.498.051-4.006 1.46-4.076 3.871-.088 3.038-.089 6.082 0 9.12.072 2.41 1.583 3.783 4.081 3.871 1.52.054 3.042.01 4.563.01M5.27 21.168C2.13 20.777.2 18.762.088 15.702c-.116-3.162-.12-6.333-.001-9.494C.209 2.923 2.482.756 5.867.654 9.05.557 12.24.553 15.424.652c3.484.107 5.737 2.313 5.84 5.696.093 3.07.091 6.146-.001 9.215-.1 3.35-2.368 5.523-5.816 5.68-1.598.073-3.203.012-4.804.012-.001.05-3.602.133-5.373-.087" mask="url(#prefix__b)"/>
        </g>
        <path fill="#2A2B33" d="M10.681 14.512c1.97-.009 3.576-1.582 3.556-3.483-.02-1.916-1.639-3.46-3.603-3.438-1.953.022-3.532 1.57-3.532 3.46-.001 1.909 1.613 3.469 3.58 3.46m-.018 1.884c-3.03-.003-5.5-2.407-5.497-5.348.003-2.943 2.478-5.342 5.507-5.339 3.03.004 5.5 2.407 5.497 5.349-.003 2.941-2.479 5.34-5.507 5.338M17.657 5.507c-.005.696-.57 1.242-1.284 1.238-.715-.003-1.269-.55-1.267-1.252.002-.702.556-1.235 1.281-1.232.723.004 1.275.547 1.27 1.246"/>
    </g>
</svg>
