<svg xmlns="http://www.w3.org/2000/svg" width="56" height="35" viewBox="0 0 56 35">
    <path fill="#2A2B33" fill-rule="evenodd" d="M1.408 16.903c-.476-.539-.614-1.436-.274-2.073.522-.98 1.333-1.75 2.062-2.579.117-.125.307-.205.473-.28 1.075-.438 2.145-.89 3.235-1.295.694-.268 1.416-.323 2.169-.277 1.415.078 2.82.165 4.158.656.671.25 1.383.339 2.074.512.646.164 1.214.593 1.938.498.2-.025.435.19.652.295.278.134.542.366.825.399 1.143.115 2.09.67 3.052 1.207.47.261.9.287 1.334-.128.213-.195.522-.338.811-.414 1.475-.388 2.778-1.26 4.313-1.506.29-.052.591-.197.833-.367 1.284-.943 2.825-1.427 4.152-2.29.136-.092.194-.16.11-.28-.07-.104-.14-.248-.232-.276-.583-.167-1.175-.32-1.768-.456-1.378-.317-2.626-.996-4.02-1.274-1.547-.304-3.052-.836-4.576-1.261-1.472-.416-2.935-.831-4.409-1.214-1.177-.304-2.342-.692-3.567-.844-.842-.106-1.68-.32-2.486-.593-.47-.16-.932-.296-1.413-.373-.527-.085-1.045-.218-1.571-.304-.482-.077-.97-.16-1.455-.182-1.362-.053-2.649-.456-3.968-.737-.714-.16-1.387-.262-2.107-.106-.172.043-.363.009-.549.014-.841.009-1.27-.171-1.196-.508C.155.243.718.231 1.166.112c.973-.251 1.953-.013 2.928.07 1.932.953 4.053.835 6.106 1.085.674.079 1.313.235 1.966.399 1.483.36 2.918.865 4.439 1.106.895.132 1.768.463 2.69.543.169.01.357.083.514.178.632.394 1.32.614 2.067.644.24.007.478.122.714.184.562.135.992.586 1.674.52.496-.048 1.051.21 1.54.426.579.251 1.195.273 1.789.403.478.107.966.236 1.4.448.397.188.774.342 1.21.377.247.015.524.032.717.152 1.079.638 2.335.683 3.474 1.102.816.296 1.596.281 2.295-.17.666-.423 1.453-.66 2.043-1.236.156-.161.423-.229.644-.315 1.596-.615 3.23-1.117 4.74-1.946.59-.32 1.328-.266 1.86-.752.498-.465 1.122-.712 1.755-.968.965-.397 1.977-.659 2.913-1.074 1.205-.537 2.297-.239 3.317.242 1.29.612 2.106 1.667 2.035 3.217-.026.679-.03 1.358-.682 1.822-.162.12-.197.436-.249.664-.035.214-.169.361-.339.374-.597.041-1.025.34-1.42.756-.198.212-.496.44-.76.456-.248.016-.457-.09-.547.23-1.374.665-2.796 1.212-4.314 1.413-.903.123-1.834-.143-2.736.197-.086.033-.225-.076-.35-.076-1.062-.041-2.108-.47-3.202-.142-.219.065-.508.015-.718-.09-1.02-.472-2.184-.25-3.212-.73-.413-.187-.955-.144-1.44.083-1.215.56-2.455 1.032-3.624 1.734-1.562.933-3.183 1.831-4.965 2.333-.706.196-1.38.503-2.054.786-.141.06-.222.257-.332.39 1.23.601 2.427 1.185 3.627 1.776.382.185.772.356 1.171.52 1.205.5 1.205.484 2.425.356.1-.008.203.076.325-.018 1.04-.733 2.278-.796 3.465-1.025.358-.064.725-.01 1.076-.175.737-.34 1.507-.44 2.332-.42.717.012 1.419-.385 2.168-.262.95-.383 1.941-.19 2.92-.155.492.016.98.098 1.467.09 1.236-.017 2.233.461 3.171 1.253.647.536 1.098 1.127 1.43 1.881.318.723.37 1.384-.044 2.101-.155.276-.291.485-.564.662-1.046.685-2.113 1.254-3.408 1.222-1.163.485-2.436.082-3.62.42-.338.095-.77.076-1.101-.052-1.38-.525-2.874-.447-4.29-.888-1.4-.435-2.787-.867-4.142-1.414-.752-.301-1.422-.713-2.132-1.089-.249-.124-.45-.105-.687-.01-1.043.415-1.902 1.089-2.675 1.877-.346.35-.649.74-1.021 1.058-.62.535-1.084 1.178-1.39 1.91-.737 1.718-1.521 3.434-1.69 5.34-.012.177-.14.37-.094.52.398 1.339-.018 2.69.079 4.025.013.163-.114.348-.223.49-.057.058-.305.073-.32.05-.258-.572-.692-1.026-.74-1.747-.059-.839-.13-1.694-.31-2.54-.163-.752-.043-1.572.212-2.36.372-1.16.805-2.301 1.146-3.463.244-.843.69-1.574 1.008-2.367.254-.625.871-1.013 1.363-1.479.369-.356.894-.485 1.178-.848.31-.382.64-.733.998-1.06.449-.405.392-.601-.176-.915-1.717-.954-3.558-1.624-5.356-2.392-.3-.126-.585-.144-.89-.046-1.22.39-2.465.669-3.685 1.059-1.856.597-3.717 1.233-5.708 1.267-.234.008-.471.124-.705.18-2.216.506-4.45.586-6.705.372-1.283-.117-2.727-.84-3.529-1.748m5.876.46c1.796.273 3.473-.661 5.256-.56.055.003.118-.03.167-.066.607-.335 1.315-.307 1.937-.509.796-.276 1.758.023 2.42-.718.09-.103.35-.04.522-.09.527-.162 1.047-.333 1.56-.517.093-.033.186-.166.215-.273.02-.052-.102-.2-.177-.228-1.558-.52-3.032-1.282-4.628-1.68-1.124-.287-2.26-.511-3.367-.849-.423-.135-.782-.218-1.234-.13-.383.078-.782-.078-1.219.002-1.404.255-2.71.786-3.965 1.39-1.208.583-2.083 1.52-2.058 3.006 0 .256.12.44.341.6.636.473 1.367.486 2.382.548.084.02.449.237.767.18.36-.064.713-.159 1.08-.106m34.823-10.69c-.793-.149-1.283.54-1.964.714-.557.145-.986.474-1.327 1.003.925.28 1.781.665 2.785.371.386-.117.848.028 1.28.047 1.169.056 2.335.15 3.501.144.57-.003 1.191.066 1.736-.133 1.2-.454 2.375-.992 3.563-1.484 1.258-.518 2.123-1.416 2.645-2.66.309-.746-.118-1.716-.886-1.901-.525-.133-1.11-.014-1.58-.422-.095-.075-.34.026-.52.061-.852.172-1.554.685-2.352.985-.915.339-1.904.479-2.58 1.296-.098.118-.343.087-.51.163-.66.315-1.299.676-1.978.945-.632.24-1.25.496-1.813.871m-3 14.299c.921.202 1.881.284 2.81.48.16.033.286.111.488.084 1.268-.147 2.542-.045 3.82-.238.87-.133 1.647-.44 2.403-.82.612-.31.728-1.2.3-1.752-.423-.559-.984-.964-1.638-1.128-.934-.243-1.84-.693-2.557-.582-.841.011-1.395-.023-1.938.03-1.327.134-2.636.471-3.985.435-.291-.01-.593.111-.89.186-.706.18-1.412.393-2.132.542-.53.106-1.087.12-1.625.217-.157.03-.352.172-.422.315-.095.172.081.314.23.416.763.534 1.62.888 2.501 1.104.891.217 1.751.518 2.636.711"/>
</svg>
