<svg xmlns="http://www.w3.org/2000/svg" xmlns:xlink="http://www.w3.org/1999/xlink" width="28" height="28" viewBox="0 0 28 28">
    <defs>
        <path id="prefix__a" d="M0 0.764L27.152 0.764 27.152 28.094 0 28.094z"/>
    </defs>
    <g fill="none" fill-rule="evenodd">
        <g transform="translate(0 -1) translate(0 .142)">
            <mask id="prefix__b" fill="#fff">
                <use xlink:href="#prefix__a"/>
            </mask>
            <path fill="#2A2B33" d="M13.552 25.556v.002c1.936 0 3.874.054 5.808-.013 3.27-.112 5.186-1.968 5.26-5.235.088-3.924.088-7.853 0-11.777-.074-3.24-1.983-5.15-5.207-5.218-3.89-.084-7.785-.083-11.675 0C4.559 3.383 2.64 5.24 2.55 8.418c-.112 4.005-.113 8.018 0 12.021.09 3.178 2.014 4.987 5.194 5.103 1.933.071 3.871.014 5.807.014m-6.844 2.347C2.71 27.388.255 24.733.112 20.698-.035 16.53-.04 12.35.11 8.183.266 3.853 3.16.997 7.466.862 11.518.734 15.58.728 19.632.859c4.434.141 7.301 3.05 7.432 7.51.118 4.046.117 8.101 0 12.147-.129 4.414-3.015 7.28-7.403 7.486-2.034.096-4.076.016-6.114.016-.001.065-4.584.175-6.839-.115" mask="url(#prefix__b)"/>
        </g>
        <path fill="#2A2B33" d="M13.594 19.129c2.507-.01 4.55-2.084 4.525-4.591-.026-2.526-2.085-4.561-4.585-4.531-2.485.029-4.495 2.068-4.496 4.56 0 2.517 2.053 4.573 4.556 4.562m-.021 2.482c-3.856-.003-7-3.172-6.997-7.05.004-3.878 3.154-7.041 7.01-7.037 3.855.005 7 3.173 6.995 7.051-.004 3.877-3.154 7.04-7.008 7.036M22.472 7.26c-.006.916-.726 1.636-1.634 1.631-.91-.003-1.615-.725-1.612-1.65.003-.926.707-1.629 1.63-1.624.92.005 1.623.72 1.616 1.642" transform="translate(0 -1)"/>
    </g>
</svg>
