<svg xmlns="http://www.w3.org/2000/svg" width="29" height="29" viewBox="0 0 29 29">
    <path fill="#2A2B33" fill-rule="evenodd" d="M21.953 17.38c-.088-.144-.32-.23-.67-.404-.349-.173-2.065-1.01-2.384-1.126-.32-.116-.552-.174-.786.173-.232.347-.9 1.126-1.105 1.357-.203.232-.407.261-.756.088-.349-.173-1.473-.54-2.805-1.72-1.038-.917-1.738-2.05-1.943-2.396-.202-.347-.02-.534.154-.707.157-.155.349-.404.524-.606.174-.203.232-.347.349-.578.117-.23.058-.433-.03-.606-.087-.174-.785-1.877-1.076-2.57-.291-.694-.582-.578-.784-.578-.204 0-.437-.03-.67-.03-.232 0-.61.087-.93.434-.32.347-1.222 1.184-1.222 2.888s1.25 3.35 1.425 3.581c.175.23 2.414 3.84 5.961 5.227 3.548 1.386 3.548.923 4.188.866.64-.058 2.065-.838 2.356-1.646.29-.81.29-1.503.204-1.647M14.764 2.25c-6.6 0-11.97 5.328-11.97 11.877 0 2.598.847 5.005 2.28 6.963L3.58 25.501l4.6-1.462c1.89 1.241 4.153 1.965 6.585 1.965 6.6 0 11.97-5.328 11.97-11.877 0-6.548-5.37-11.877-11.97-11.877M29 14.127c0 7.801-6.373 14.127-14.236 14.127-2.497 0-4.842-.639-6.882-1.758L0 29l2.57-7.58C1.274 19.293.527 16.797.527 14.128.527 6.325 6.9 0 14.764 0 22.628 0 29 6.325 29 14.127"/>
</svg>
